<svg xmlns="http://www.w3.org/2000/svg"  aria-hidden="true" role="img"  width="134" height="40" preserveAspectRatio="xMidYMid meet" viewBox="0 0 134 40" fill='none'>



<path fill-rule="evenodd" clip-rule="evenodd" d="M39.8375 40H33.581H0V0H33.581H39.8375H134V40H39.8375ZM39.8375 1.28592V38.714H132.697V1.28592H39.8375ZM7.24313 32.7273V7.27267H32.5944V32.7273H7.24313ZM54.2816 24.8009V26.1537C53.9395 25.9644 53.6121 25.8035 53.3002 25.6706C52.9876 25.537 52.6735 25.4361 52.3572 25.3678C52.1776 25.3338 51.998 25.3055 51.8177 25.284C51.6381 25.2625 51.4549 25.2514 51.2665 25.2514C50.2651 25.2514 49.4329 25.5698 48.7708 26.2049C48.1071 26.8408 47.7761 27.6437 47.7761 28.6142C47.7761 29.6026 48.1035 30.4055 48.7575 31.0237C49.4123 31.6425 50.2651 31.9519 51.3175 31.9519C51.5658 31.9519 51.8178 31.9304 52.0743 31.8874C52.3314 31.8444 52.5879 31.7797 52.8443 31.6937C53.1015 31.6083 53.3579 31.5052 53.6144 31.3851C53.8716 31.2648 54.1235 31.1231 54.3719 30.9591V32.3252C53.9439 32.5575 53.4799 32.7445 52.9795 32.8862C52.4792 33.0279 51.8865 33.0984 51.2022 33.0984C49.9104 33.0984 48.8964 32.7741 48.1612 32.1256C47.4251 31.4771 46.9336 30.7618 46.6853 29.9804C46.6166 29.766 46.5656 29.553 46.5309 29.3423C46.4969 29.1323 46.4799 28.9282 46.4799 28.7309C46.4799 27.3907 46.9306 26.2829 47.8337 25.4066C48.736 24.5302 49.8845 24.0924 51.279 24.0924C51.7328 24.0924 52.1969 24.1503 52.6714 24.2661C53.1458 24.3818 53.6831 24.5643 54.2816 24.8137V24.8009ZM65.347 24.1435L69.2608 32.9826H67.9771L66.8095 30.3929H63.0885L61.9852 32.9826H60.7015L64.4616 24.1435H65.347ZM64.8851 26.0765L63.5763 29.2591H66.2967L64.8851 26.0765ZM75.5905 24.1954H78.3241C79.2819 24.2036 79.9855 24.4552 80.4348 24.9486C80.8841 25.4428 81.1088 26.0379 81.1088 26.7332C81.1088 27.4203 80.8708 28.0028 80.3964 28.4792C79.9212 28.9564 79.1748 29.1946 78.1571 29.1946H76.8484V32.9826H75.5906L75.5905 24.1954ZM76.8483 25.3293V28.0474H78.2724C78.7432 28.0562 79.117 27.9405 79.3949 27.7001C79.6736 27.4597 79.8125 27.1198 79.8125 26.682C79.8125 26.6561 79.8125 26.6323 79.8125 26.6108C79.8125 26.5893 79.8125 26.5678 79.8125 26.5507C79.7867 26.2479 79.6647 25.9689 79.4467 25.7137C79.2287 25.4577 78.854 25.3293 78.3241 25.3293L76.8483 25.3293ZM88.901 24.1954V32.9826H87.6432V24.1954H88.901ZM102.84 24.1954V25.3293H99.8119V32.9826H98.5548V25.3293H95.5263V24.1954H102.84ZM111.853 24.1435L115.767 32.9826H114.483L113.315 30.3929H109.594L108.491 32.9826H107.207L110.967 24.1435H111.853ZM111.391 26.0765L110.082 29.2591H112.802L111.391 26.0765ZM123.405 24.1954V31.8488H127.357V32.9826H122.147V24.1954H123.405ZM115.865 6.90093H118.995L121.6 12.9759L124.224 6.90093H127.354V19.3307H124.207L124.224 15.7497L124.416 13.2394L124.311 13.2216L122.685 17.4883H120.534L118.873 13.2216L118.785 13.2394L118.995 15.7497V19.3307H115.865V6.90093ZM49.648 12.1159H54.4212V15.0477H49.648V19.3307H46.4835V6.90093H55.1034V9.88538H49.648V12.1159ZM62.5232 11.782H67.5419V14.5038H62.5232V16.3648H67.9786V19.3307H59.3594V6.90093H67.9786V9.85123H62.5232V11.782ZM77.2363 12.6769C77.5622 12.6769 77.8356 12.6072 78.0573 12.4662C78.279 12.326 78.4445 12.1508 78.5554 11.94C78.667 11.7293 78.7217 11.5015 78.7217 11.2559C78.7217 11.008 78.667 10.7803 78.5554 10.5703C78.4445 10.3603 78.279 10.1837 78.0573 10.0435C77.8356 9.90245 77.5622 9.83269 77.2363 9.83269H75.3998V12.6769H77.2363ZM75.3998 15.3809V19.3307H72.2346V6.90093H77.1838C77.8246 6.90093 78.4195 6.97809 78.9671 7.12942C79.5147 7.28154 79.995 7.52122 80.4096 7.8492C80.8242 8.17645 81.1495 8.60087 81.3888 9.12178C81.6275 9.64269 81.7591 10.266 81.7828 10.991C81.7828 12.1508 81.567 13.0605 81.1353 13.7224C80.7045 14.3829 80.1088 14.8302 79.3513 15.0655L82.7264 19.3307H78.8267L75.9585 15.3808L75.3998 15.3809ZM91.9827 12.6769C92.3108 12.6769 92.5843 12.6072 92.8052 12.4662C93.0277 12.326 93.1932 12.1508 93.3033 11.94C93.4141 11.7293 93.4703 11.5015 93.4703 11.2559C93.4703 11.008 93.4141 10.7803 93.3033 10.5703C93.1932 10.3603 93.0276 10.1837 92.8052 10.0435C92.5843 9.90245 92.3108 9.83269 91.9827 9.83269H90.1477V12.6769H91.9827ZM90.1477 15.3809V19.3307H86.9825V6.90093H91.931C92.5724 6.90093 93.1666 6.97809 93.7142 7.12942C94.2626 7.28154 94.7436 7.52122 95.1575 7.8492C95.5714 8.17645 95.898 8.60087 96.1367 9.12178C96.3762 9.64269 96.5062 10.266 96.5306 10.991C96.5306 12.1508 96.3148 13.0605 95.8832 13.7224C95.4516 14.3829 94.8575 14.8302 94.1 15.0655L97.4743 19.3307H93.5745L90.7072 15.3808L90.1477 15.3809ZM104.895 15.1701C104.895 15.5092 104.982 15.7905 105.157 16.0138C105.332 16.2357 105.551 16.402 105.812 16.5133C106.074 16.6246 106.357 16.6802 106.66 16.6802C106.964 16.6802 107.246 16.6223 107.509 16.5051C107.771 16.3871 107.993 16.2209 108.174 16.005C108.353 15.7883 108.444 15.5093 108.444 15.1702V6.90106H111.609V15.1702C111.609 15.8967 111.466 16.5348 111.181 17.0847C110.896 17.6338 110.519 18.0916 110.053 18.4537C109.587 18.8173 109.059 19.0889 108.47 19.27C107.882 19.4518 107.278 19.5423 106.66 19.5423C106.042 19.5423 105.436 19.4518 104.842 19.27C104.247 19.0889 103.72 18.8173 103.259 18.4537C102.799 18.0916 102.429 17.6338 102.149 17.0847C101.87 16.5348 101.73 15.8966 101.73 15.1702V6.90106H104.895L104.895 15.1701Z" fill="#fff"></path>
</svg>